<?xml version="1.0" encoding="utf-8"?>
<!-- Generator: Adobe Illustrator 15.1.0, SVG Export Plug-In . SVG Version: 6.00 Build 0)  -->
<!DOCTYPE svg PUBLIC "-//W3C//DTD SVG 1.1//EN" "http://www.w3.org/Graphics/SVG/1.1/DTD/svg11.dtd">
<svg version="1.1" id="Warstwa_1" xmlns="http://www.w3.org/2000/svg" xmlns:xlink="http://www.w3.org/1999/xlink" x="0px" y="0px"
	 width="90.628px" height="19.329px" viewBox="0 0 90.628 19.329" enable-background="new 0 0 90.628 19.329" xml:space="preserve">
<g>
	<path fill="#FFFFFF" d="M9.629,17.939c0.24,0.48,0.03,1.05-0.45,1.29c-0.48,0.24-1.05,0.03-1.26-0.45L3.6,9.87l-1.68,2.34v6.15
		c0,0.54-0.42,0.96-0.96,0.96c-0.51,0-0.96-0.42-0.96-0.96V0.96C0,0.42,0.45,0,0.96,0C1.5,0,1.92,0.42,1.92,0.96v7.95l6.06-8.52
		c0.33-0.42,0.93-0.51,1.35-0.21c0.42,0.3,0.54,0.9,0.21,1.35L4.89,8.07L9.629,17.939z"/>
	<path fill="#FFFFFF" d="M12.42,0.03c0.51-0.12,1.05,0.18,1.17,0.72c0,0,2.13,8.85,3.27,13.529c1.11-4.68,3.27-13.529,3.27-13.529
		C20.219,0.3,20.609,0,21.06,0c0.45,0,0.81,0.3,0.93,0.75c0,0,2.13,8.85,3.27,13.529c1.11-4.68,3.27-13.529,3.27-13.529
		c0.12-0.54,0.63-0.84,1.14-0.72c0.51,0.12,0.84,0.63,0.72,1.17l-4.2,17.399c-0.12,0.42-0.48,0.72-0.93,0.72
		c-0.45,0-0.84-0.3-0.93-0.72c0,0-2.16-8.879-3.27-13.559c-1.14,4.68-3.27,13.559-3.27,13.559c-0.12,0.42-0.48,0.72-0.93,0.72
		c-0.45,0-0.84-0.3-0.93-0.72L11.73,1.2C11.61,0.66,11.91,0.15,12.42,0.03z"/>
	<path fill="#FFFFFF" d="M42.539,18.119c0.15,0.51-0.15,1.02-0.69,1.17c-0.51,0.15-1.02-0.15-1.17-0.66c0,0-0.39-1.47-0.96-3.51
		h-5.82c-0.57,2.04-0.96,3.51-0.96,3.51c-0.15,0.51-0.66,0.81-1.2,0.66c-0.51-0.15-0.81-0.66-0.66-1.17l4.8-17.399
		C36,0.3,36.389,0,36.81,0c0.42,0,0.81,0.3,0.93,0.72L42.539,18.119z M39.179,13.199c-0.81-2.97-1.77-6.45-2.37-8.64
		c-0.6,2.19-1.56,5.67-2.37,8.64H39.179z"/>
	<path fill="#FFFFFF" d="M49.889,0.12c2.52,0,4.56,2.04,4.56,4.56v9.96c0,2.52-2.04,4.56-4.56,4.56h-3.6
		c-0.54,0-0.96-0.42-0.96-0.96V1.08c0-0.54,0.42-0.96,0.96-0.96H49.889z M49.889,2.04h-2.64v15.239h2.64c1.47,0,2.64-1.17,2.64-2.64
		V4.68C52.529,3.24,51.359,2.04,49.889,2.04z"/>
	<path fill="#FFFFFF" d="M64.469,10.589l2.76,7.44c0.18,0.48-0.06,1.05-0.57,1.23c-0.48,0.18-1.05-0.06-1.23-0.57l-2.88-7.77h-2.46
		v7.44c0,0.54-0.42,0.96-0.96,0.96c-0.51,0-0.96-0.42-0.96-0.96V1.08c0-0.54,0.45-0.96,0.96-0.96h3.6c2.52,0,4.56,2.04,4.56,4.56
		v1.68C67.289,8.28,66.119,9.899,64.469,10.589z M65.369,6.36V4.68c0-1.44-1.17-2.64-2.64-2.64h-2.64V9h2.64
		C64.199,9,65.369,7.83,65.369,6.36z"/>
	<path fill="#FFFFFF" d="M80.818,18.119c0.15,0.51-0.15,1.02-0.69,1.17c-0.51,0.15-1.02-0.15-1.17-0.66c0,0-0.39-1.47-0.96-3.51
		h-5.82c-0.57,2.04-0.96,3.51-0.96,3.51c-0.15,0.51-0.66,0.81-1.2,0.66c-0.51-0.15-0.81-0.66-0.66-1.17l4.8-17.399
		C74.279,0.3,74.668,0,75.089,0c0.42,0,0.81,0.3,0.93,0.72L80.818,18.119z M77.458,13.199c-0.81-2.97-1.77-6.45-2.37-8.64
		c-0.6,2.19-1.56,5.67-2.37,8.64H77.458z"/>
	<path fill="#FFFFFF" d="M89.668,0.12c0.54,0,0.96,0.42,0.96,0.96s-0.42,0.96-0.96,0.96h-2.94v16.319c0,0.54-0.42,0.96-0.96,0.96
		c-0.51,0-0.96-0.42-0.96-0.96V2.04h-2.94c-0.51,0-0.96-0.42-0.96-0.96s0.45-0.96,0.96-0.96H89.668z"/>
</g>
</svg>
